<?xml version="1.0" encoding="UTF-8" standalone="no"?>
<svg
   xmlns:dc="http://purl.org/dc/elements/1.1/"
   xmlns:cc="http://creativecommons.org/ns#"
   xmlns:rdf="http://www.w3.org/1999/02/22-rdf-syntax-ns#"
   xmlns:svg="http://www.w3.org/2000/svg"
   xmlns="http://www.w3.org/2000/svg"
   xmlns:sodipodi="http://sodipodi.sourceforge.net/DTD/sodipodi-0.dtd"
   xmlns:inkscape="http://www.inkscape.org/namespaces/inkscape"
   inkscape:version="1.0beta2 (2b71d25, 2019-12-03)"
   height="46.200001"
   width="75.400002"
   sodipodi:docname="careousel_white.svg"
   id="svg895"
   xml:space="preserve"
   viewBox="0 0 75.400002 46.200001"
   y="0px"
   x="0px"
   version="1.1"><metadata
     id="metadata901"><rdf:RDF><cc:Work
         rdf:about=""><dc:format>image/svg+xml</dc:format><dc:type
           rdf:resource="http://purl.org/dc/dcmitype/StillImage" /><dc:title></dc:title></cc:Work></rdf:RDF></metadata><defs
     id="defs899" /><sodipodi:namedview
     inkscape:current-layer="svg895"
     inkscape:window-maximized="0"
     inkscape:window-y="23"
     inkscape:window-x="68"
     inkscape:cy="36.5"
     inkscape:cx="-21.515074"
     inkscape:zoom="2.176"
     inkscape:pagecheckerboard="true"
     showgrid="false"
     id="namedview897"
     inkscape:window-height="670"
     inkscape:window-width="1085"
     inkscape:pageshadow="2"
     inkscape:pageopacity="0"
     guidetolerance="10"
     gridtolerance="10"
     objecttolerance="10"
     borderopacity="1"
     inkscape:document-rotation="0"
     bordercolor="#666666"
     pagecolor="#ffffff" /><style
     id="style875"
     type="text/css">
	.st0{fill:none;}
</style><polygon
     transform="translate(-14.3,-26)"
     id="polygon877"
     points="26.3,39.6 26.3,30.1 28.3,30.1 28.3,39.6 28.6,39.6 28.6,30.1 30.6,30.1 30.6,39.6 31.1,39.6 31.1,30.1 33.1,30.1 33.1,39.6 33.8,39.6 33.8,30.1 35.8,30.1 35.8,39.6 36.8,39.6 36.8,30.1 38.8,30.1 38.8,39.6 40.3,39.6 40.3,30.1 42.3,30.1 42.3,39.6 44,39.6 44,30.1 46,30.1 46,39.6 47.6,39.6 47.6,30.1 49.6,30.1 49.6,39.6 51,39.6 51,30.1 53,30.1 53,39.6 54.7,39.6 54.7,30.1 56.7,30.1 56.7,39.6 58.3,39.6 58.3,30.1 60.3,30.1 60.3,39.6 62,39.6 62,30.1 64,30.1 64,39.6 65.5,39.6 65.5,30.1 67.5,30.1 67.5,39.6 68.5,39.6 68.5,30.1 70.5,30.1 70.5,39.6 71.2,39.6 71.2,30.1 73.2,30.1 73.2,39.6 73.7,39.6 73.7,30.1 75.7,30.1 75.7,39.6 76.1,39.6 76.1,30.1 78.1,30.1 78.1,39.6 78.3,39.6 78.3,35.5 78.3,35.5 78.3,33.1 78.3,30.1 77.1,28 26.9,28 25.7,30.1 26,30.1 26,39.6 "
     class="st0" /><path
     inkscape:connector-curvature="0"
     id="path879"
     d="M 9.2,34.8 C 8.4,33.3 8,31.6 8,29.8 c 0,-6.1 4.9,-11 11,-11 6.1,0 11,4.9 11,11 0,1.8 -0.5,3.6 -1.3,5.1 L 73.2,35.2 71.7,15.6 H 67.5 8 3.8 L 2.3,34.8 Z M 37,19.2 52.5,18 67.9,19.2 v 5.4 L 52.5,25.8 37.1,24.6 v -5.4 z"
     class="st0" /><polygon
     transform="translate(-14.3,-26)"
     id="polygon881"
     points="66.8,46 53.3,47.1 53.3,48.9 66.8,49.9 80.2,48.9 80.2,47.1 "
     class="st0" /><path
     inkscape:connector-curvature="0"
     id="path883"
     d="M 73.2,37.2 27.3,36.9 c -2,2.4 -5,3.9 -8.4,3.9 -3.4,0 -6.5,-1.6 -8.5,-4 L 2.2,36.7 1.9,38.5 v 0.6 l 1,0.8 0.1,4.2 h 69.3 l 0.1,-4.2 1,-0.8 v -0.6 z"
     class="st0" /><path
     style="fill:#ffffff"
     inkscape:connector-curvature="0"
     id="path885"
     d="m 75.4,38.3 -2,-24.7 h -6 L 67.5,8.8 66,8.2 V 7.2 3.6 L 63.9,0 H 11.5 L 9.4,3.7 V 8.3 L 7.9,8.9 8,13.7 H 2 L 0,38.4 v 0.1 1.7 l 1,0.8 0.1,5.2 h 73.2 l 0.1,-5.2 1,-0.8 z M 12.6,2 h 50.1 l 1.2,2.2 v 3 2.4 0 4.1 H 63.7 V 4.2 h -2 v 9.5 H 61.3 V 4.2 h -2 v 9.5 H 58.8 V 4.2 h -2 v 9.5 H 56 V 4.2 h -2 v 9.5 H 53 V 4.2 h -2 v 9.5 H 49.7 V 4.2 h -2 v 9.5 H 46 V 4.2 h -2 v 9.5 H 42.4 V 4.2 h -2 v 9.5 H 38.7 V 4.2 h -2 v 9.5 H 35.3 V 4.2 h -2 v 9.5 H 31.7 V 4.2 h -2 v 9.5 H 28 V 4.2 h -2 v 9.5 H 24.5 V 4.2 h -2 v 9.5 h -1 V 4.2 h -2 v 9.5 H 18.7 V 4.2 h -2 v 9.5 H 16.2 V 4.2 h -2 v 9.5 H 13.8 V 4.2 h -2 v 9.5 H 11.7 V 4.2 H 11.4 Z M 8,15.6 h 59.5 4.2 l 1.5,19.6 -44.5,-0.3 c 0.8,-1.5 1.3,-3.2 1.3,-5.1 0,-6.1 -4.9,-11 -11,-11 -6.1,0 -11,4.9 -11,11 0,1.8 0.4,3.5 1.2,5 H 2.3 L 3.8,15.6 Z m 11,23.2 c -5,0 -9,-4 -9,-9 0,-5 4,-9 9,-9 5,0 9,4 9,9 0,5 -4.1,9 -9,9 z m 53.4,1.1 -0.1,4.2 H 3.1 L 3,39.9 2,39.1 v -0.6 l 0.3,-1.8 8.2,0.1 c 2,2.5 5.1,4 8.5,4 3.4,0 6.4,-1.5 8.4,-3.9 l 45.9,0.3 0.2,1.3 v 0.6 z" /><path
     style="fill:#ffffff"
     inkscape:connector-curvature="0"
     id="path887"
     d="m 26.1,29.8 c 0,-3.9 -3.2,-7.1 -7.1,-7.1 -3.9,0 -7.1,3.2 -7.1,7.1 0,3.9 3.2,7.1 7.1,7.1 3.9,0.1 7.1,-3.1 7.1,-7.1 z m -12.3,0 c 0,-2.8 2.3,-5.1 5.1,-5.1 2.8,0 5.1,2.3 5.1,5.1 0,2.8 -2.2,5.2 -5,5.2 -2.8,0 -5.2,-2.3 -5.2,-5.2 z" /><path
     style="fill:#ffffff"
     inkscape:connector-curvature="0"
     id="path889"
     d="M 67.9,24.7 V 19.3 L 52.5,18 37.1,19.2 v 5.4 l 15.4,1.2 z M 39,21.1 52.5,20 65.9,21.1 v 1.8 L 52.5,24 39.1,22.9 v -1.8 z" /></svg>
