<?xml version="1.0" encoding="UTF-8" standalone="no"?>
<svg
   xmlns:dc="http://purl.org/dc/elements/1.1/"
   xmlns:cc="http://creativecommons.org/ns#"
   xmlns:rdf="http://www.w3.org/1999/02/22-rdf-syntax-ns#"
   xmlns:svg="http://www.w3.org/2000/svg"
   xmlns="http://www.w3.org/2000/svg"
   xmlns:sodipodi="http://sodipodi.sourceforge.net/DTD/sodipodi-0.dtd"
   xmlns:inkscape="http://www.inkscape.org/namespaces/inkscape"
   inkscape:version="1.0beta2 (2b71d25, 2019-12-03)"
   height="84"
   width="52.400002"
   sodipodi:docname="mic_white.svg"
   id="svg3861"
   version="1.1"
   y="0px"
   x="0px"
   viewBox="0 0 52.400002 84"
   data-name="Layer 1">
  <metadata
     id="metadata3867">
    <rdf:RDF>
      <cc:Work
         rdf:about="">
        <dc:format>image/svg+xml</dc:format>
        <dc:type
           rdf:resource="http://purl.org/dc/dcmitype/StillImage" />
        <dc:title>17</dc:title>
      </cc:Work>
    </rdf:RDF>
  </metadata>
  <defs
     id="defs3865" />
  <sodipodi:namedview
     inkscape:current-layer="svg3861"
     inkscape:window-maximized="0"
     inkscape:window-y="23"
     inkscape:window-x="68"
     inkscape:cy="54.5"
     inkscape:cx="-31.015074"
     inkscape:zoom="2.176"
     inkscape:pagecheckerboard="true"
     showgrid="false"
     id="namedview3863"
     inkscape:window-height="789"
     inkscape:window-width="1275"
     inkscape:pageshadow="2"
     inkscape:pageopacity="0"
     guidetolerance="10"
     gridtolerance="10"
     objecttolerance="10"
     borderopacity="1"
     inkscape:document-rotation="0"
     bordercolor="#666666"
     pagecolor="#ffffff" />
  <title
     id="title3849">17</title>
  <g
     transform="translate(-23.8,-8)"
     style="fill:#ffffff"
     id="g3855"
     data-name="Group">
    <path
       inkscape:connector-curvature="0"
       style="fill:#ffffff"
       id="path3851"
       d="M 50,69.6 A 15.7,15.7 0 0 0 65.7,53.8 V 23.7 a 15.7,15.7 0 0 0 -31.4,0 V 53.8 A 15.7,15.7 0 0 0 50,69.6 Z M 38.3,23.7 a 11.7,11.7 0 0 1 23.4,0 v 30.1 a 11.7,11.7 0 1 1 -23.4,0 z"
       data-name="Compound Path" />
    <path
       inkscape:connector-curvature="0"
       style="fill:#ffffff"
       id="path3853"
       d="m 72.2,53.9 a 22.2,22.2 0 1 1 -44.4,0 h -4 A 26.4,26.4 0 0 0 48,80.1 V 88 h -8.9 v 4 H 60.9 V 88 H 52 V 80.1 A 26.4,26.4 0 0 0 76.2,53.9 Z"
       data-name="Path" />
  </g>
</svg>
