<?xml version="1.0" encoding="UTF-8" standalone="no"?>
<svg
   xmlns:dc="http://purl.org/dc/elements/1.1/"
   xmlns:cc="http://creativecommons.org/ns#"
   xmlns:rdf="http://www.w3.org/1999/02/22-rdf-syntax-ns#"
   xmlns:svg="http://www.w3.org/2000/svg"
   xmlns="http://www.w3.org/2000/svg"
   xmlns:sodipodi="http://sodipodi.sourceforge.net/DTD/sodipodi-0.dtd"
   xmlns:inkscape="http://www.inkscape.org/namespaces/inkscape"
   inkscape:version="1.0beta2 (2b71d25, 2019-12-03)"
   height="90.309998"
   width="57.433575"
   sodipodi:docname="projector_white.svg"
   id="svg2661"
   xml:space="preserve"
   enable-background="new 0 0 100 100"
   viewBox="0 0 57.433575 90.309998"
   y="0px"
   x="0px"
   version="1.1"><metadata
     id="metadata2667"><rdf:RDF><cc:Work
         rdf:about=""><dc:format>image/svg+xml</dc:format><dc:type
           rdf:resource="http://purl.org/dc/dcmitype/StillImage" /><dc:title></dc:title></cc:Work></rdf:RDF></metadata><defs
     id="defs2665" /><sodipodi:namedview
     inkscape:current-layer="svg2661"
     inkscape:window-maximized="0"
     inkscape:window-y="23"
     inkscape:window-x="68"
     inkscape:cy="57.615"
     inkscape:cx="-28.506865"
     inkscape:zoom="1.7684262"
     inkscape:pagecheckerboard="true"
     showgrid="false"
     id="namedview2663"
     inkscape:window-height="686"
     inkscape:window-width="1182"
     inkscape:pageshadow="2"
     inkscape:pageopacity="0"
     guidetolerance="10"
     gridtolerance="10"
     objecttolerance="10"
     borderopacity="1"
     inkscape:document-rotation="0"
     bordercolor="#666666"
     pagecolor="#ffffff" /><g
     transform="translate(-21.291791,-4.885)"
     style="fill:#ffffff"
     id="g2655"><path
       inkscape:connector-curvature="0"
       style="fill:#ffffff"
       id="path2649"
       d="m 78.687,54.957 c 0,-0.002 0,-0.004 0,-0.006 -0.003,-0.011 -0.011,-0.018 -0.015,-0.028 -0.033,-0.105 -0.084,-0.201 -0.149,-0.289 -0.023,-0.031 -0.05,-0.056 -0.076,-0.084 -0.056,-0.06 -0.116,-0.111 -0.186,-0.156 -0.036,-0.023 -0.07,-0.043 -0.109,-0.062 -0.028,-0.013 -0.05,-0.034 -0.079,-0.045 L 57.112,46.49 V 29.382 l 6.928,-0.798 c 0.505,-0.059 0.886,-0.486 0.886,-0.994 v -4.482 c 0,-0.022 -0.011,-0.04 -0.012,-0.061 C 64.909,22.961 64.891,22.88 64.864,22.799 64.852,22.763 64.845,22.726 64.83,22.692 64.784,22.593 64.724,22.503 64.649,22.423 64.642,22.416 64.639,22.406 64.632,22.4 64.555,22.324 64.466,22.259 64.365,22.21 L 55.597,17.94 62.894,6.42 C 63.089,6.112 63.101,5.722 62.925,5.403 62.749,5.083 62.413,4.885 62.049,4.885 H 49.141 c -0.348,0 -0.67,0.18 -0.852,0.477 l -7.945,12.927 c -0.013,0.021 -0.013,0.046 -0.024,0.067 -0.015,0.029 -0.036,0.053 -0.049,0.084 -0.017,0.041 -0.018,0.088 -0.029,0.131 -0.014,0.057 -0.027,0.111 -0.032,0.169 -0.002,0.025 -0.014,0.046 -0.014,0.071 v 4.533 c 0,0.358 0.192,0.689 0.503,0.868 l 9.973,5.715 c 0.014,0.008 0.03,0.011 0.045,0.018 V 45.802 L 22.12,50.693 c -0.015,0.003 -0.026,0.012 -0.04,0.015 -0.057,0.012 -0.107,0.038 -0.161,0.06 -0.064,0.026 -0.127,0.05 -0.183,0.087 -0.043,0.029 -0.077,0.066 -0.115,0.101 -0.056,0.052 -0.108,0.105 -0.151,0.168 -0.012,0.018 -0.031,0.028 -0.042,0.047 -0.017,0.029 -0.018,0.061 -0.031,0.09 -0.031,0.066 -0.055,0.133 -0.071,0.205 -0.013,0.059 -0.02,0.115 -0.022,0.174 -10e-4,0.033 -0.014,0.064 -0.012,0.098 l 1.458,24.384 c 0.016,0.266 0.137,0.515 0.337,0.69 L 43.66,94.946 c 0.048,0.042 0.107,0.065 0.161,0.096 0.045,0.026 0.083,0.06 0.132,0.079 0.118,0.047 0.242,0.074 0.369,0.074 0.127,0 0.255,-0.024 0.377,-0.074 l 0.009,-0.004 c 0.002,-0.001 0.004,-0.001 0.006,-0.002 L 76.435,82.2 c 0.355,-0.145 0.597,-0.479 0.621,-0.862 L 78.724,55.286 C 78.73,55.173 78.716,55.062 78.687,54.957 Z M 53.64,47.333 74.51,55.095 44.461,63.604 25.147,52.206 Z m -30.242,6.164 19.923,11.757 v 3.814 L 23.635,57.451 Z m 21.923,11.942 31.315,-8.868 -0.265,4.133 -31.05,8.792 z m 7.395,-37.564 v -2.668 l 10.21,-0.997 v 2.488 z m 7.589,-5.418 -8.39,0.819 -6.901,-3.6 8.925,-0.32 z M 49.7,6.885 H 60.232 L 53.59,17.367 43.024,17.745 Z m -7.505,15.881 v -2.304 l 8.521,4.445 v 2.741 z m 10.521,7.122 2.396,-0.276 v 16.134 l -1.027,-0.382 c -0.166,-0.062 -0.343,-0.077 -0.518,-0.048 l -0.852,0.146 V 29.888 Z M 23.779,59.859 43.322,71.391 V 91.982 L 24.719,75.589 Z m 21.542,32.85 V 71.575 l 30.914,-8.754 -1.137,17.765 z" /><path
       inkscape:connector-curvature="0"
       style="fill:#ffffff"
       id="path2651"
       d="m 30.981,53.996 13.702,7.581 c 0.149,0.083 0.316,0.125 0.484,0.125 0.081,0 0.161,-0.01 0.241,-0.029 l 23.5,-5.828 c 0.427,-0.105 0.734,-0.478 0.759,-0.917 0.023,-0.438 -0.242,-0.842 -0.655,-0.993 L 53.985,48.436 c -0.163,-0.061 -0.339,-0.077 -0.511,-0.047 l -22.175,3.746 c -0.419,0.071 -0.748,0.399 -0.819,0.818 -0.072,0.419 0.129,0.837 0.501,1.043 z M 53.546,50.405 65.255,54.69 45.308,59.636 34.452,53.63 Z" /><path
       inkscape:connector-curvature="0"
       style="fill:#ffffff"
       id="path2653"
       d="M 40.321,76.21 27.464,67.254 c -0.31,-0.215 -0.715,-0.237 -1.047,-0.06 -0.333,0.18 -0.535,0.53 -0.524,0.908 l 0.197,6.994 c 0.008,0.286 0.138,0.555 0.357,0.738 l 12.66,10.606 c 0.184,0.153 0.412,0.233 0.642,0.233 0.144,0 0.288,-0.031 0.423,-0.094 0.352,-0.164 0.577,-0.518 0.577,-0.906 V 77.03 c 10e-4,-0.327 -0.16,-0.634 -0.428,-0.82 z m -5.902,-1.674 1.205,0.839 v 5.538 l -1.205,-1.009 z m -2,3.693 -1.204,-1.009 v -4.916 l 1.204,0.839 z m -4.472,-8.201 1.268,0.883 v 4.634 L 28.076,74.591 Z M 38.75,83.531 37.596,82.564 c 0.007,-0.048 0.028,-0.09 0.028,-0.14 v -5.656 l 1.126,0.784 z" /></g></svg>
