<?xml version="1.0" encoding="UTF-8" standalone="no"?>
<svg
   xmlns:dc="http://purl.org/dc/elements/1.1/"
   xmlns:cc="http://creativecommons.org/ns#"
   xmlns:rdf="http://www.w3.org/1999/02/22-rdf-syntax-ns#"
   xmlns:svg="http://www.w3.org/2000/svg"
   xmlns="http://www.w3.org/2000/svg"
   xmlns:sodipodi="http://sodipodi.sourceforge.net/DTD/sodipodi-0.dtd"
   xmlns:inkscape="http://www.inkscape.org/namespaces/inkscape"
   inkscape:version="1.0beta2 (2b71d25, 2019-12-03)"
   height="50.205196"
   width="58.470001"
   sodipodi:docname="radio_white.svg"
   id="svg2062"
   xml:space="preserve"
   enable-background="new 0 0 64 64"
   viewBox="0 0 58.470001 50.205196"
   y="0px"
   x="0px"
   version="1.1"><metadata
     id="metadata2068"><rdf:RDF><cc:Work
         rdf:about=""><dc:format>image/svg+xml</dc:format><dc:type
           rdf:resource="http://purl.org/dc/dcmitype/StillImage" /><dc:title></dc:title></cc:Work></rdf:RDF></metadata><defs
     id="defs2066" /><sodipodi:namedview
     inkscape:current-layer="svg2062"
     inkscape:window-maximized="0"
     inkscape:window-y="23"
     inkscape:window-x="68"
     inkscape:cy="32.872196"
     inkscape:cx="62.813529"
     inkscape:zoom="3.4"
     inkscape:pagecheckerboard="true"
     showgrid="false"
     id="namedview2064"
     inkscape:window-height="818"
     inkscape:window-width="1259"
     inkscape:pageshadow="2"
     inkscape:pageopacity="0"
     guidetolerance="10"
     gridtolerance="10"
     objecttolerance="10"
     borderopacity="1"
     inkscape:document-rotation="0"
     bordercolor="#666666"
     pagecolor="#ffffff" /><path
     style="fill:#ffffff"
     inkscape:connector-curvature="0"
     id="path2050"
     d="M 57.47,11.081196 H 10.505 L 52.64,1.9931964 c 0.543,-0.114 0.886,-0.657 0.771,-1.20000004 -0.115,-0.543 -0.657,-0.886 -1.2,-0.771 L 0.801,11.110196 c -0.021,0.004 -0.036,0.019 -0.056,0.024 -0.09,0.025 -0.172,0.061 -0.25,0.109 -0.035,0.021 -0.067,0.042 -0.099,0.067 -0.072,0.057 -0.131,0.121 -0.186,0.195 -0.021,0.029 -0.041,0.055 -0.058,0.086 -0.048,0.082 -0.081,0.167 -0.104,0.261 -0.009,0.036 -0.017,0.07 -0.022,0.107 -0.006,0.042 -0.026,0.08 -0.026,0.122 v 37.124 c 0,0.543 0.458,1 1,1 h 56.47 c 0.543,0 1,-0.457 1,-1 v -37.124 c 0,-0.542 -0.457,-1 -1,-1 z m -1.001,9.088 H 2.03 v -7.059 h 54.44 v 7.059 z m -54.439,28.007 v -26.007 h 54.44 v 26.006 H 2.03 Z" /><path
     style="fill:#ffffff"
     inkscape:connector-curvature="0"
     id="path2052"
     d="m 15.49,25.256196 c -2.744,0 -5.23,1.115 -7.03,2.915 -1.8,1.772 -2.915,4.259 -2.915,7.002 0,2.743 1.115,5.229 2.915,7.03 1.8,1.801 4.287,2.915 7.03,2.915 2.743,0 5.201,-1.114 7.001,-2.915 1.8,-1.801 2.915,-4.287 2.915,-7.03 0,-2.743 -1.115,-5.229 -2.915,-7.002 -1.8,-1.8 -4.258,-2.915 -7.001,-2.915 z m 5.572,15.518 c -1.429,1.429 -3.401,2.314 -5.573,2.314 -2.201,0 -4.172,-0.886 -5.601,-2.314 -1.429,-1.429 -2.315,-3.401 -2.315,-5.602 0,-2.172 0.886,-4.144 2.315,-5.602 1.429,-1.429 3.4,-2.314 5.601,-2.314 2.172,0 4.144,0.886 5.573,2.314 1.458,1.458 2.343,3.43 2.343,5.602 10e-4,2.201 -0.885,4.174 -2.343,5.602 z" /><path
     style="fill:#ffffff"
     inkscape:connector-curvature="0"
     id="path2054"
     d="m 43.01,25.256196 c -2.743,0 -5.229,1.115 -7.03,2.915 -1.8,1.772 -2.914,4.259 -2.914,7.002 0,2.743 1.114,5.229 2.914,7.03 1.801,1.801 4.287,2.915 7.03,2.915 2.744,0 5.229,-1.114 7.002,-2.915 1.8,-1.801 2.915,-4.287 2.915,-7.03 0,-2.743 -1.115,-5.229 -2.915,-7.002 -1.773,-1.8 -4.258,-2.915 -7.002,-2.915 z m 5.601,15.518 c -1.458,1.429 -3.43,2.314 -5.602,2.314 -2.2,0 -4.172,-0.886 -5.601,-2.314 -1.43,-1.429 -2.315,-3.401 -2.315,-5.602 0,-2.172 0.886,-4.144 2.315,-5.602 1.429,-1.429 3.4,-2.314 5.601,-2.314 2.172,0 4.144,0.886 5.602,2.314 1.429,1.458 2.314,3.43 2.314,5.602 0.001,2.201 -0.885,4.174 -2.314,5.602 z" /><path
     style="fill:#ffffff"
     inkscape:connector-curvature="0"
     id="path2056"
     d="M 7.916,17.625196 H 43.81 v 0.857 c 0,0.543 0.429,1 1,1 0.543,0 1,-0.458 1,-1 v -0.857 h 4.744 c 0.571,0 1.028,-0.429 1.028,-1 0,-0.543 -0.457,-1 -1.028,-1 H 45.81 v -0.857 c 0,-0.543 -0.457,-1 -1,-1 -0.571,0 -1,0.457 -1,1 v 0.857 H 7.916 c -0.543,0 -1,0.458 -1,1 0,0.572 0.457,1 1,1 z" /></svg>
