<?xml version="1.0" encoding="UTF-8" standalone="no"?>
<svg
   xmlns:dc="http://purl.org/dc/elements/1.1/"
   xmlns:cc="http://creativecommons.org/ns#"
   xmlns:rdf="http://www.w3.org/1999/02/22-rdf-syntax-ns#"
   xmlns:svg="http://www.w3.org/2000/svg"
   xmlns="http://www.w3.org/2000/svg"
   xmlns:sodipodi="http://sodipodi.sourceforge.net/DTD/sodipodi-0.dtd"
   xmlns:inkscape="http://www.inkscape.org/namespaces/inkscape"
   inkscape:version="1.0beta2 (2b71d25, 2019-12-03)"
   height="16.404167"
   width="12.35525"
   sodipodi:docname="recorder_white.svg"
   id="svg1463"
   y="0px"
   x="0px"
   version="1.1"
   viewBox="0 0 12.35525 16.404167">
  <metadata
     id="metadata1469">
    <rdf:RDF>
      <cc:Work
         rdf:about="">
        <dc:format>image/svg+xml</dc:format>
        <dc:type
           rdf:resource="http://purl.org/dc/dcmitype/StillImage" />
        <dc:title></dc:title>
      </cc:Work>
    </rdf:RDF>
  </metadata>
  <defs
     id="defs1467" />
  <sodipodi:namedview
     inkscape:current-layer="svg1463"
     inkscape:window-maximized="0"
     inkscape:window-y="23"
     inkscape:window-x="68"
     inkscape:cy="10.31875"
     inkscape:cx="15.126768"
     inkscape:zoom="12.850394"
     inkscape:pagecheckerboard="true"
     showgrid="false"
     id="namedview1465"
     inkscape:window-height="814"
     inkscape:window-width="1170"
     inkscape:pageshadow="2"
     inkscape:pageopacity="0"
     guidetolerance="10"
     gridtolerance="10"
     objecttolerance="10"
     borderopacity="1"
     inkscape:document-rotation="0"
     bordercolor="#666666"
     pagecolor="#ffffff" />
  <g
     style="fill:#ffffff"
     id="g1457"
     transform="translate(172.33596,-62.616958)">
    <path
       inkscape:connector-curvature="0"
       id="path1455"
       stroke-width="0.58921069"
       fill-rule="evenodd"
       fill="#000000"
       style="fill:#ffffff"
       d="m -172.17274,62.616958 h 0.004 10.81938 c 0.0904,0 0.16367,0.07327 0.16367,0.163681 v 0.0045 1.741911 h 1.04108 c 0.0904,0 0.16367,0.07327 0.16367,0.16368 v 0.0045 3.019973 c 0,0.09042 -0.0733,0.16368 -0.16367,0.16368 h -0.004 -1.03685 v 1.135026 h 1.04108 c 0.0904,0 0.16367,0.07327 0.16367,0.16368 v 0.0045 3.020018 c 0,0.09041 -0.0733,0.16368 -0.16367,0.16368 h -0.004 -1.03685 v 6.491658 c 0,0.09041 -0.0733,0.16368 -0.16367,0.16368 h -0.004 -10.81938 c -0.0904,-2.4e-5 -0.16368,-0.07329 -0.16368,-0.163703 v -0.0045 -16.071967 c 0,-0.09041 0.0733,-0.16368 0.16368,-0.16368 z m 10.65995,0.32736 h -10.49627 v 15.748884 h 10.49627 v -6.487449 -0.0045 -0.0045 -3.019995 -0.0045 -1.453878 -0.0045 -0.0045 -3.020063 -0.0045 z m 0.32735,1.909911 v 2.696889 h 0.8774 v -2.696889 z m 0,4.48668 v 2.696933 h 0.8774 v -2.696933 z m -9.00914,-4.878376 h 0.004 6.86325 c 0.0904,0 0.16368,0.07327 0.16368,0.16368 v 0.0045 10.063489 c 0,0.09041 -0.0733,0.16368 -0.16368,0.16368 h -0.004 -6.86324 c -0.0904,0 -0.16368,-0.07327 -0.16368,-0.16368 v -0.0045 -10.063489 c 0,-0.09041 0.0733,-0.16368 0.16368,-0.16368 z m 6.70379,0.327361 h -6.54011 v 9.740359 h 6.54011 z m -3.27001,1.224681 c 0.39613,0 0.75545,0.161008 1.0154,0.42087 l 6e-4,6.01e-4 0.002,0.0022 c 0.25831,0.259794 0.41823,0.617975 0.41823,1.012744 0,0.396773 -0.16101,0.756246 -0.42083,1.016041 -0.25994,0.25995 -0.6192,0.420981 -1.01602,0.420981 -0.39625,0 -0.75555,-0.161008 -1.0155,-0.420803 l -6e-4,-6.01e-4 -0.002,-0.0022 c -0.25833,-0.259795 -0.41825,-0.617909 -0.41825,-1.012923 0,-0.396774 0.16101,-0.756068 0.42099,-1.015973 0.25979,-0.259773 0.61923,-0.42087 1.01599,-0.42087 z m 0.78492,0.652026 c -0.20065,-0.200425 -0.47847,-0.324599 -0.78492,-0.324599 -0.30638,0 -0.58401,0.124263 -0.78452,0.324889 -0.20065,0.200646 -0.32507,0.478323 -0.32507,0.784527 0,0.306627 0.12426,0.584393 0.3246,0.785063 0.20065,0.200424 0.47843,0.324598 0.78499,0.324598 0.30628,0 0.58393,-0.124263 0.7846,-0.325066 0.20042,-0.200424 0.32488,-0.478146 0.32488,-0.784595 0,-0.306382 -0.12426,-0.584192 -0.32456,-0.784817 z m -0.78492,3.765106 c 0.39685,0 0.7561,0.161008 1.01604,0.421003 0.2598,0.259773 0.42083,0.619245 0.42083,1.016018 0,0.396306 -0.16101,0.755445 -0.42083,1.015327 l -5.8e-4,5.91e-4 -0.002,0.0022 c -0.25972,0.258302 -0.61791,0.418219 -1.01273,0.418219 -0.39676,0 -0.75619,-0.161008 -1.01599,-0.42087 -0.25995,-0.259905 -0.42098,-0.619199 -0.42098,-1.015973 0,-0.396751 0.16101,-0.756245 0.42082,-1.01604 0.25996,-0.259906 0.61939,-0.420981 1.01615,-0.420981 z m 0.7846,0.652426 c -0.20064,-0.200646 -0.47832,-0.325066 -0.7846,-0.325066 -0.30638,0 -0.58401,0.124486 -0.7847,0.325066 -0.20043,0.200647 -0.32489,0.478146 -0.32489,0.784595 0,0.30627 0.12426,0.583858 0.32507,0.78455 0.20042,0.200425 0.47814,0.324933 0.78452,0.324933 0.30645,0 0.58422,-0.124263 0.78492,-0.324599 0.20041,-0.200647 0.32456,-0.478302 0.32456,-0.784884 0,-0.306449 -0.12448,-0.584015 -0.32488,-0.784595 z m -4.38208,5.11089 c 0,-0.09042 0.0733,-0.16368 0.16368,-0.16368 0.0904,0 0.16368,0.07327 0.16368,0.16368 v 0.816106 c 0,0.09041 -0.0733,0.16368 -0.16368,0.16368 -0.0904,0 -0.16368,-0.07327 -0.16368,-0.16368 z m 0.85838,0 c 0,-0.09042 0.0733,-0.16368 0.16367,-0.16368 0.0904,0 0.16368,0.07327 0.16368,0.16368 v 0.816106 c 0,0.09041 -0.0733,0.16368 -0.16368,0.16368 -0.0904,0 -0.16367,-0.07327 -0.16367,-0.16368 z m 0.8587,0 c 0,-0.09042 0.0733,-0.16368 0.16368,-0.16368 0.0904,0 0.16368,0.07327 0.16368,0.16368 v 0.816106 c 0,0.09041 -0.0733,0.16368 -0.16368,0.16368 -0.0904,0 -0.16368,-0.07327 -0.16368,-0.16368 z m 0.85819,0 c 0,-0.09042 0.0733,-0.16368 0.16369,-0.16368 0.0904,0 0.16368,0.07327 0.16368,0.16368 v 0.816106 c 0,0.09041 -0.0733,0.16368 -0.16368,0.16368 -0.0904,0 -0.16369,-0.07327 -0.16369,-0.16368 z m 0.85871,0 c 0,-0.09042 0.0733,-0.16368 0.16368,-0.16368 0.0904,0 0.16368,0.07327 0.16368,0.16368 v 0.816106 c 0,0.09041 -0.0733,0.16368 -0.16368,0.16368 -0.0904,0 -0.16368,-0.07327 -0.16368,-0.16368 z m 0.85838,0 c 0,-0.09042 0.0733,-0.16368 0.16368,-0.16368 0.0904,0 0.16367,0.07327 0.16367,0.16368 v 0.816106 c 0,0.09041 -0.0733,0.16368 -0.16367,0.16368 -0.0904,0 -0.16368,-0.07327 -0.16368,-0.16368 z m 0.85806,0 c 0,-0.09042 0.0733,-0.16368 0.16368,-0.16368 0.0904,0 0.16368,0.07327 0.16368,0.16368 v 0.816106 c 0,0.09041 -0.0733,0.16368 -0.16368,0.16368 -0.0904,0 -0.16368,-0.07327 -0.16368,-0.16368 z m 0.8587,0 c 0,-0.09042 0.0733,-0.16368 0.16368,-0.16368 0.0904,0 0.16369,0.07327 0.16369,0.16368 v 0.816106 c 0,0.09041 -0.0733,0.16368 -0.16369,0.16368 -0.0904,0 -0.16368,-0.07327 -0.16368,-0.16368 z m 0.85837,0 c 0,-0.09042 0.0733,-0.16368 0.16369,-0.16368 0.0904,0 0.16368,0.07327 0.16368,0.16368 v 0.816106 c 0,0.09041 -0.0733,0.16368 -0.16368,0.16368 -0.0904,0 -0.16369,-0.07327 -0.16369,-0.16368 z" />
  </g>
</svg>
