<?xml version="1.0" encoding="UTF-8" standalone="no"?>
<svg
   xmlns:dc="http://purl.org/dc/elements/1.1/"
   xmlns:cc="http://creativecommons.org/ns#"
   xmlns:rdf="http://www.w3.org/1999/02/22-rdf-syntax-ns#"
   xmlns:svg="http://www.w3.org/2000/svg"
   xmlns="http://www.w3.org/2000/svg"
   xmlns:sodipodi="http://sodipodi.sourceforge.net/DTD/sodipodi-0.dtd"
   xmlns:inkscape="http://www.inkscape.org/namespaces/inkscape"
   height="504"
   width="508"
   inkscape:version="1.0beta2 (2b71d25, 2019-12-03)"
   sodipodi:docname="tv_white.svg"
   id="svg855"
   xml:space="preserve"
   enable-background="new 0 0 512 512"
   viewBox="0 0 508 504"
   y="0px"
   x="0px"
   version="1.1"><metadata
     id="metadata861"><rdf:RDF><cc:Work
         rdf:about=""><dc:format>image/svg+xml</dc:format><dc:type
           rdf:resource="http://purl.org/dc/dcmitype/StillImage" /><dc:title></dc:title></cc:Work></rdf:RDF></metadata><defs
     id="defs859" /><sodipodi:namedview
     inkscape:pagecheckerboard="true"
     inkscape:current-layer="svg855"
     inkscape:window-maximized="0"
     inkscape:window-y="95"
     inkscape:window-x="237"
     inkscape:cy="296.25178"
     inkscape:cx="384"
     inkscape:zoom="1.05"
     showgrid="false"
     id="namedview857"
     inkscape:window-height="866"
     inkscape:window-width="1317"
     inkscape:pageshadow="2"
     inkscape:pageopacity="0"
     guidetolerance="10"
     gridtolerance="10"
     objecttolerance="10"
     borderopacity="1"
     inkscape:document-rotation="0"
     bordercolor="#666666"
     pagecolor="#ffffff" /><g
     transform="translate(-2,-4)"
     style="fill:#ffffff"
     id="g849"><path
       inkscape:connector-curvature="0"
       style="fill:#ffffff"
       id="path833"
       d="M 510,163.9 H 296.1 c -1.3,-6.3 -4.1,-11.9 -7.9,-16.8 l 89,-117.6 -13.1,-9.9 -88.4,116.8 c -5.9,-3.3 -12.6,-5.3 -19.8,-5.3 -6.9,0 -13.3,1.9 -19,4.9 L 156.5,4 l -14,8.5 81.7,134.1 c -4,5 -7,10.8 -8.3,17.3 H 2 V 491.6 H 34.8 V 508 H 51.2 V 491.6 H 460.9 V 508 h 16.4 V 491.6 H 510 Z M 256,147.5 c 10.7,0 19.7,6.9 23.1,16.4 H 233 c 3.3,-9.5 12.3,-16.4 23,-16.4 z M 493.6,475.3 H 18.4 v -295 h 475.2 z" /><path
       inkscape:connector-curvature="0"
       style="fill:#ffffff"
       id="path835"
       d="m 75.7,458.9 h 278.6 c 22.6,0 41,-18.4 41,-41 V 237.7 c 0,-22.6 -18.4,-41 -41,-41 H 75.7 c -22.6,0 -41,18.4 -41,41 V 418 c 0.1,22.5 18.5,40.9 41,40.9 z M 51.2,237.7 c 0,-13.6 11,-24.6 24.6,-24.6 h 278.6 c 13.6,0 24.6,11 24.6,24.6 V 418 c 0,13.6 -11,24.6 -24.6,24.6 H 75.7 c -13.6,0 -24.6,-11 -24.6,-24.6 V 237.7 Z" /><path
       inkscape:connector-curvature="0"
       style="fill:#ffffff"
       id="path837"
       d="m 444.5,262.2 c 18.1,0 32.8,-14.7 32.8,-32.8 0,-18.1 -14.7,-32.8 -32.8,-32.8 -18.1,0 -32.8,14.7 -32.8,32.8 0,18.1 14.7,32.8 32.8,32.8 z m 0,-49.1 c 9,0 16.4,7.3 16.4,16.4 0,9 -7.4,16.4 -16.4,16.4 -9,0 -16.4,-7.3 -16.4,-16.4 0,-9.1 7.3,-16.4 16.4,-16.4 z" /><path
       inkscape:connector-curvature="0"
       style="fill:#ffffff"
       id="path839"
       d="m 444.5,352.4 c 18.1,0 32.8,-14.7 32.8,-32.8 0,-18.1 -14.7,-32.8 -32.8,-32.8 -18.1,0 -32.8,14.7 -32.8,32.8 0,18.1 14.7,32.8 32.8,32.8 z m 0,-49.2 c 9,0 16.4,7.3 16.4,16.4 0,9 -7.4,16.4 -16.4,16.4 -9,0 -16.4,-7.3 -16.4,-16.4 0,-9.1 7.3,-16.4 16.4,-16.4 z" /><rect
       style="fill:#ffffff"
       id="rect841"
       height="16.4"
       width="16.4"
       y="376.89999"
       x="411.70001" /><rect
       style="fill:#ffffff"
       id="rect843"
       height="16.4"
       width="16.4"
       y="376.89999"
       x="452.60001" /><rect
       style="fill:#ffffff"
       id="rect845"
       height="16.4"
       width="16.4"
       y="417.89999"
       x="411.70001" /><rect
       style="fill:#ffffff"
       id="rect847"
       height="16.4"
       width="16.4"
       y="417.89999"
       x="452.60001" /></g></svg>
